<svg version="1.1" xmlns="http://www.w3.org/2000/svg" viewBox="0 0 1386.75 1229.7434084284778" width="2773.5" height="2459.4868168569556">
  <!-- svg-source:excalidraw -->
  
  <defs>
    <style>
      @font-face {
        font-family: "Virgil";
        src: url("https://excalidraw.com/Virgil.woff2");
      }
      @font-face {
        font-family: "Cascadia";
        src: url("https://excalidraw.com/Cascadia.woff2");
      }
    </style>
  </defs>
  <rect x="0" y="0" width="1386.75" height="1229.7434084284778" fill="#ffffff"></rect><g transform="translate(537.6190476190477 190.52380952380958) rotate(0 138.5 12.5)"><text x="0" y="18" font-family="Virgil, Segoe UI Emoji" font-size="20px" fill="#000000" text-anchor="start" style="white-space: pre;" direction="ltr">Pedir vocales y consonantes</text></g><g transform="translate(606.9523809523811 288.5238095238096) rotate(0 64.5 24.999999999999993)"><text x="0" y="18" font-family="Virgil, Segoe UI Emoji" font-size="20px" fill="#000000" text-anchor="start" style="white-space: pre;" direction="ltr">Temporizador</text><text x="0" y="43" font-family="Virgil, Segoe UI Emoji" font-size="20px" fill="#000000" text-anchor="start" style="white-space: pre;" direction="ltr">+ Letras</text></g><g transform="translate(562.2857142857143 395.5238095238096) rotate(0 137.99999999999994 12.5)"><text x="0" y="18" font-family="Virgil, Segoe UI Emoji" font-size="20px" fill="#000000" text-anchor="start" style="white-space: pre;" direction="ltr">Jugador 1 introduce palabra</text></g><g transform="translate(536.2857142857143 494.5238095238096) rotate(0 142.49999999999994 12.5)"><text x="0" y="18" font-family="Virgil, Segoe UI Emoji" font-size="20px" fill="#000000" text-anchor="start" style="white-space: pre;" direction="ltr">Jugador 2 introduce palabra</text></g><g stroke-linecap="round" transform="translate(514.6190476190477 178.52380952380958) rotate(0 155 24.5)"><path d="M-1.18 -0.99 C116.39 -1.02, 232.21 -1.04, 310.56 0.36 M0.17 0.08 C76.31 1.89, 153.3 2.35, 309.61 0.28 M308.83 -0.32 C308.07 11.89, 309.29 21.18, 311.86 48.2 M309.16 0.11 C310.91 12.32, 309.41 24.19, 309.06 48.07 M309.79 50.37 C211.96 49.94, 114.65 52.11, -0.07 47.84 M310.34 48.48 C233.15 50.61, 156.19 50.33, 0.24 49.47 M0.75 47.63 C0.02 32.8, -0.05 21.52, 0.72 -1.5 M0.32 48.17 C0.13 35.8, -1.15 23.68, -0.38 0.94" stroke="#000000" stroke-width="1" fill="none"></path></g><g stroke-linecap="round" transform="translate(582.2857142857143 274.5238095238096) rotate(0 84 37.5)"><path d="M-1.87 0.28 C37.88 3.12, 73.02 3.49, 167.08 -1.08 M-0.81 -0.52 C43.55 0.9, 87.6 -0.64, 168.22 -0.31 M169.31 -0.12 C168.35 23.41, 168.23 47.63, 168.24 73.2 M167.25 -0.44 C169.15 22.85, 168.82 45.42, 168.46 74.36 M169.88 73.18 C133.38 74.68, 96.39 73.96, 1.33 76.03 M167.58 75.8 C125.68 74.88, 82.64 74.58, 0.52 74.9 M-1.14 75.8 C-2.16 56.58, -0.34 36.58, -1.61 1.15 M-0.05 74.32 C0.11 55.74, 0.43 38.52, 0.87 -0.8" stroke="#000000" stroke-width="1" fill="none"></path></g><g stroke-linecap="round" transform="translate(536.2857142857143 378.5238095238096) rotate(0 156.49999999999994 25.5)"><path d="M-1.18 0.65 C113.66 -1.9, 228.87 -1.26, 314.34 -1.29 M-0.14 0.47 C124.35 -1.95, 247.59 -1.98, 312.7 0.57 M313.78 1.04 C313.14 17.93, 315.05 38.53, 311.86 51.8 M312.87 -0.81 C313.74 10.87, 312.19 23.74, 312.95 50.32 M313.43 52.24 C237.5 49.58, 163.55 50.17, 1.4 50.11 M312.97 50.78 C202.38 53.08, 91.58 52.86, 0.35 50.92 M1.2 50.33 C0.78 38.25, 1.77 24.03, -1.17 1.26 M-0.18 50.72 C0.65 35.85, -0.86 21.06, 0 -0.57" stroke="#000000" stroke-width="1" fill="none"></path></g><g stroke-linecap="round" transform="translate(512.2857142857143 480.5238095238096) rotate(0 168.49999999999994 25.5)"><path d="M0.77 -0.74 C104.72 3.04, 212 0.92, 336.16 -1.16 M-0.54 -0.35 C90.64 -2.04, 182.62 -2.38, 337.36 -0.5 M337.43 0.07 C337.33 19.44, 337.95 39.79, 335.93 50.96 M337.39 -0.1 C338.19 15.36, 336.72 33.19, 336.98 51.42 M338.16 51.08 C231.45 51.03, 127.65 49.61, -0.6 49.95 M336.61 51.67 C239.57 48.76, 141.7 49.3, 0.11 50.95 M1.52 51.73 C1.42 41.87, 0.36 31.35, 0.92 -0.85 M0.73 51.48 C0.49 35.43, 0.54 21.79, 0.77 0.83" stroke="#000000" stroke-width="1" fill="none"></path></g><g stroke-linecap="round"><g transform="translate(659.89523675154 234.3419913419914) rotate(0 -1.3732334138707074 14.032630956959498)"><path d="M-0.07 0.47 C-0.56 4.92, -1.54 22.62, -1.82 27.22 M-1.56 -0.33 C-2.3 4.22, -2.54 23.43, -2.68 28.39" stroke="#000000" stroke-width="1" fill="none"></path></g><g transform="translate(659.89523675154 234.3419913419914) rotate(0 -1.3732334138707074 14.032630956959498)"><path d="M-6.63 15.35 C-6.14 20.7, -3.37 26.47, -3.71 29.24 M-7.07 14.86 C-6.3 19.83, -3.73 24.27, -2.03 28.49" stroke="#000000" stroke-width="1" fill="none"></path></g><g transform="translate(659.89523675154 234.3419913419914) rotate(0 -1.3732334138707074 14.032630956959498)"><path d="M2.93 15.55 C-0.37 20.81, -1.39 26.51, -3.71 29.24 M2.49 15.06 C-0.2 19.95, -1.09 24.31, -2.03 28.49" stroke="#000000" stroke-width="1" fill="none"></path></g></g><g stroke-linecap="round"><g transform="translate(661.5076536993763 353.61471861471864) rotate(0 0.4815420792396594 11.369520481201732)"><path d="M0.44 -0.52 C0.6 3.51, 1.68 19.43, 1.75 23.26 M-0.79 1.82 C-0.78 5.63, 1.13 18.02, 1.27 21.7" stroke="#000000" stroke-width="1" fill="none"></path></g><g transform="translate(661.5076536993763 353.61471861471864) rotate(0 0.4815420792396594 11.369520481201732)"><path d="M-4 12.52 C-0.84 15.36, 0.16 18.17, 0.77 21.15 M-3.16 11.71 C-1.77 15.08, -0.12 19.82, 1.08 21.36" stroke="#000000" stroke-width="1" fill="none"></path></g><g transform="translate(661.5076536993763 353.61471861471864) rotate(0 0.4815420792396594 11.369520481201732)"><path d="M3.55 11.78 C3.93 14.92, 2.15 18.01, 0.77 21.15 M4.39 10.97 C2.86 14.7, 1.59 19.72, 1.08 21.36" stroke="#000000" stroke-width="1" fill="none"></path></g></g><g stroke-linecap="round"><g transform="translate(668.2857142857143 435.5238095238096) rotate(0 1.0135640785098303 18.562152116997154)"><path d="M-0.93 -0.48 C-0.45 5.79, 2.59 31.36, 2.96 37.58 M0.78 -1.77 C1.19 4.67, 2.01 32.35, 2.51 38.9" stroke="#000000" stroke-width="1" fill="none"></path></g><g transform="translate(668.2857142857143 435.5238095238096) rotate(0 1.0135640785098303 18.562152116997154)"><path d="M-5.63 22.88 C-3.3 25.58, -2.25 33.56, 3.49 40.42 M-5.4 21.32 C-2.88 26.05, -0.61 32.7, 3.29 39.22" stroke="#000000" stroke-width="1" fill="none"></path></g><g transform="translate(668.2857142857143 435.5238095238096) rotate(0 1.0135640785098303 18.562152116997154)"><path d="M7.37 22.24 C5.75 25.03, 2.85 33.2, 3.49 40.42 M7.59 20.68 C6.26 25.52, 4.67 32.35, 3.29 39.22" stroke="#000000" stroke-width="1" fill="none"></path></g></g><g transform="translate(384 637.6666666666667) rotate(0 105 25)"><text x="0" y="18" font-family="Virgil, Segoe UI Emoji" font-size="20px" fill="#000000" text-anchor="start" style="white-space: pre;" direction="ltr">El jugador A tiene la</text><text x="0" y="43" font-family="Virgil, Segoe UI Emoji" font-size="20px" fill="#000000" text-anchor="start" style="white-space: pre;" direction="ltr">palabra mas larga</text></g><g stroke-linecap="round"><g transform="translate(642.7760261322287 532.5238095238096) rotate(0 -61.887947086038594 45.65928282635886)"><path d="M-0.9 0.21 C-21.38 15.6, -103.19 76.74, -123.51 92.05 M0.82 -0.73 C-19.78 14.37, -103.9 75.24, -124.6 90.41" stroke="#000000" stroke-width="1" fill="none"></path></g><g transform="translate(642.7760261322287 532.5238095238096) rotate(0 -61.887947086038594 45.65928282635886)"><path d="M-107.5 65.08 C-110.53 72.23, -114.57 76.27, -123.55 88.65 M-107.05 65.72 C-112.42 72.69, -118.86 80.82, -124.12 90.98" stroke="#000000" stroke-width="1" fill="none"></path></g><g transform="translate(642.7760261322287 532.5238095238096) rotate(0 -61.887947086038594 45.65928282635886)"><path d="M-95.43 81.67 C-101.38 84.65, -108.4 84.6, -123.55 88.65 M-94.98 82.31 C-103.85 84.34, -113.86 87.57, -124.12 90.98" stroke="#000000" stroke-width="1" fill="none"></path></g></g><g stroke-linecap="round" transform="translate(367 629.6666666666667) rotate(0 118.5 34)"><path d="M0.55 -1.39 C55.78 -0.31, 110.45 -0.57, 236.55 -0.94 M0.41 -0.63 C50.82 0.11, 103 1.15, 237.06 -0.69 M238.3 -0.94 C237.29 14.16, 235.03 27.6, 238.25 67.35 M236.73 -0.73 C238.03 19.35, 236.97 39.35, 237.72 68.34 M236.59 66.92 C182.12 70.13, 127.66 70.46, 1.51 66.6 M236.66 68.05 C183.61 67.87, 130.66 66.31, 0.67 67.21 M1 66.57 C-1.42 42.68, 0.77 22.36, -0.41 1.47 M0.56 68.86 C0.9 45.64, -0.98 21.93, -0.43 0.2" stroke="#000000" stroke-width="1" fill="none"></path></g><g stroke-linecap="round" transform="translate(407 735.6666666666667) rotate(0 81 55.5)"><path d="M83.08 -1.3 C105.14 17.57, 124.02 29.66, 163.64 55.09 M82.93 -0.63 C101.86 15.8, 122.62 30, 162.02 55.64 M160.2 56.78 C135.02 74.27, 107.09 94.78, 81.99 112.98 M162.93 55.01 C134.52 75.85, 105.75 96.83, 82.76 111.61 M80.13 110.95 C56.14 93.07, 34.16 78.91, -1.19 54.72 M81.08 110.87 C51.61 89.77, 24.09 70.14, 0.46 55.3 M-1.23 55 C19.23 45.41, 34.46 32.65, 80.13 -1.15 M0.87 55.4 C19.86 42.87, 38.47 28.02, 81.36 0.97" stroke="#000000" stroke-width="1" fill="none"></path></g><g transform="translate(450 777.6666666666667) rotate(0 39 12.5)"><text x="0" y="18" font-family="Virgil, Segoe UI Emoji" font-size="20px" fill="#000000" text-anchor="start" style="white-space: pre;" direction="ltr">esValido</text></g><g transform="translate(575.5 756.1666666666667) rotate(0 48.5 12.5)"><text x="0" y="18" font-family="Virgil, Segoe UI Emoji" font-size="20px" fill="#000000" text-anchor="start" style="white-space: pre;" direction="ltr">Verdadero</text></g><g transform="translate(345.5 754.1666666666667) rotate(0 26 12.5)"><text x="0" y="18" font-family="Virgil, Segoe UI Emoji" font-size="20px" fill="#000000" text-anchor="start" style="white-space: pre;" direction="ltr">Falso</text></g><g stroke-linecap="round"><g transform="translate(476.5274297102537 700.2910178931329) rotate(11.906181829945195 4.84186252921927 15.998824807858398)"><path d="M0.67 -0.42 C2.23 4.92, 8.68 26.55, 10.12 32.1 M-0.43 -1.68 C0.92 3.86, 7.85 28.24, 9.3 33.68" stroke="#000000" stroke-width="1" fill="none"></path></g><g transform="translate(476.5274297102537 700.2910178931329) rotate(11.906181829945195 4.84186252921927 15.998824807858398)"><path d="M-1 20.39 C3.25 24.19, 7.85 28.35, 8.42 34.82 M-0.34 19.33 C3.02 23.52, 5.73 28.55, 9.05 33.32" stroke="#000000" stroke-width="1" fill="none"></path></g><g transform="translate(476.5274297102537 700.2910178931329) rotate(11.906181829945195 4.84186252921927 15.998824807858398)"><path d="M10.04 17.34 C10.28 22.31, 10.86 27.58, 8.42 34.82 M10.7 16.27 C10.85 21.4, 10.33 27.32, 9.05 33.32" stroke="#000000" stroke-width="1" fill="none"></path></g></g><g stroke-linecap="round"><g transform="translate(574.9354805270585 794.9672010349723) rotate(0 67.21436530765203 -1.0159503716518543)"><path d="M1.15 0.23 C23.32 0.07, 112.24 -0.24, 134.13 -0.65 M0.3 -0.69 C22.28 -1.2, 111.11 -2.18, 133.55 -2.26" stroke="#000000" stroke-width="1" fill="none"></path></g><g transform="translate(574.9354805270585 794.9672010349723) rotate(0 67.21436530765203 -1.0159503716518543)"><path d="M105.83 9.4 C118.03 2.33, 126.45 1.52, 131.83 -3.93 M104.54 7.83 C116.57 4.19, 126.79 -0.29, 133.71 -2.32" stroke="#000000" stroke-width="1" fill="none"></path></g><g transform="translate(574.9354805270585 794.9672010349723) rotate(0 67.21436530765203 -1.0159503716518543)"><path d="M105.66 -11.12 C117.98 -10.16, 126.46 -2.92, 131.83 -3.93 M104.38 -12.69 C116.57 -8.46, 126.85 -5.06, 133.71 -2.32" stroke="#000000" stroke-width="1" fill="none"></path></g></g><g transform="translate(732.5 773.6666666666667) rotate(0 64.5 12.5)"><text x="0" y="18" font-family="Virgil, Segoe UI Emoji" font-size="20px" fill="#000000" text-anchor="start" style="white-space: pre;" direction="ltr">Victoria de A</text></g><g stroke-linecap="round" transform="translate(715.5 765.6666666666667) rotate(0 81.5 19)"><path d="M-0.97 -1.02 C55.47 -1.89, 111.05 -2.11, 164.21 -0.94 M0.53 0.35 C62.13 0.68, 125.24 -0.99, 162.03 -0.48 M162.97 -1.33 C164.78 7.86, 162.94 16.08, 161.69 37.8 M162.62 -0.06 C163.6 13.24, 163.47 25.98, 162.02 37.74 M164.13 36.15 C98.98 37.73, 32.48 37.61, -0.24 36.47 M162.14 37.55 C114.61 38.78, 63.42 39.68, -0.73 37.35 M-0.46 36.11 C0.97 24.46, -1.82 8.74, 1.69 0.66 M-0.94 37.56 C-0.66 26.54, -0.67 16.5, 0.8 0.12" stroke="#000000" stroke-width="1" fill="none"></path></g><g stroke-linecap="round" transform="translate(737 902.6666666666667) rotate(0 73 41.993311036789294)"><path d="M17.11 14.87 C17.11 14.87, 17.11 14.87, 17.11 14.87 M17.11 14.87 C17.11 14.87, 17.11 14.87, 17.11 14.87 M5.41 37.15 C7.82 30.41, 11.77 26.2, 24.56 11.46 M5.07 36.12 C13.55 26.47, 22.13 16.03, 24.93 11.28 M5.88 42.8 C14 32.5, 22.24 19.87, 33.59 9.57 M3.76 41.17 C11.07 35.52, 16.59 27.66, 33.34 8.92 M5.86 46.25 C18.46 31.36, 31.87 16.13, 42.97 3.31 M5.2 47.03 C15.59 34.03, 26.02 22.81, 42.57 3.71 M2.25 57.52 C17.9 36.52, 33.37 18.49, 48.64 3.3 M3.6 55 C18.14 37.55, 33.18 20.36, 48.42 3.16 M6.19 60.07 C23.04 35.89, 43.09 11.57, 53.47 3.55 M6.17 58.95 C18.85 42.68, 30.41 28.64, 54.43 2.22 M10.31 60.61 C26.05 41.72, 40.22 22.99, 60.29 3.33 M9.97 60.52 C29.55 38.79, 48.99 14.91, 60.55 2.59 M12.13 65.33 C22.77 50.17, 35.74 36.15, 63.52 1.61 M12.87 62.86 C23.57 50.8, 35.41 37.63, 64.3 2.57 M13.09 67.58 C31.43 47.04, 45.96 30.58, 71.43 4.34 M14.14 65.67 C29.06 50.63, 42.34 36.32, 70.59 1.85 M18.13 70.24 C31.16 53.59, 43.07 39.82, 75.8 1.15 M17.59 69.08 C33.43 50.87, 49.93 31.04, 74.94 3.56 M19.38 72.08 C37.57 53.78, 53 36.95, 80.2 2.94 M20.82 71.4 C39.53 51.26, 55.86 30.9, 79.31 3.38 M23.75 74.17 C35.8 58.63, 51.42 43.26, 83.59 4.25 M24.39 72.95 C48.61 47.6, 72.45 18.82, 85.31 3.28 M29.87 76.7 C41.64 58.96, 53.96 45.77, 92 5.67 M28.28 74.4 C47.58 52.1, 68.28 29.39, 89.38 3.4 M31.78 77.92 C48.42 57.69, 59.75 44.99, 94.08 4.18 M33.19 77.05 C52.3 52.94, 72.41 30.12, 95.95 3.83 M37.83 76.72 C61.95 48.06, 84.8 19.9, 100.13 4.3 M36.99 78.92 C57.69 53.19, 79.28 29.33, 100.02 5.19 M39.63 77.5 C59.02 56.66, 77.8 36.15, 103.67 6.17 M41.23 79.03 C59.57 58.58, 77.82 37.04, 104.28 6.14 M43.73 81.1 C69.01 53.47, 89.29 27.9, 107.11 6.25 M44.35 79.74 C67.95 54.09, 91.07 27.49, 108.34 7.53 M49.23 80.85 C67.65 61.31, 83.67 39.2, 113.34 11.61 M48.89 82.31 C69.35 58.49, 88.84 35.24, 111.93 10.13 M53.34 82.74 C66.44 67.73, 83.25 50.57, 116.03 11.39 M52.61 82.43 C72.9 61.14, 93.21 37.11, 116.68 11.49 M58.42 85.07 C77.72 62.08, 95.17 38.79, 119.26 11.59 M57.12 85.33 C74.32 64.55, 91.81 45.42, 119.4 12.25 M62.21 85.23 C77.98 65.03, 91.71 48.24, 123.18 15.28 M61.58 84.06 C76.57 66.6, 93.11 47.92, 123.23 13.69 M68.22 84.71 C84.41 68.74, 99.37 51.26, 130.2 13.88 M66.72 85.81 C82.03 67.73, 98.1 51.29, 129.44 14.51 M74.55 84.85 C93.39 61.06, 113.87 37.22, 132.12 19.41 M73.26 85.24 C92.94 61.29, 112.95 40.18, 132.09 18.5 M79.61 84.03 C92.07 66.91, 105.15 49.98, 134.87 19.72 M79.11 85.02 C96.8 63.35, 114.53 41.97, 134.38 19.2 M83.76 85.8 C106.29 58.8, 126.44 36.16, 138.31 22.49 M84.6 85.4 C99.11 67.68, 112.74 51.36, 135.94 23.35 M90.81 82.97 C103.62 69.23, 115.63 53.19, 138.44 26 M89.59 83.76 C103.87 66.79, 119.52 50.98, 138.69 27.11 M95.15 85.26 C112.01 61, 130.93 42.97, 141.04 27.85 M94.07 83.71 C109.02 67.96, 123.92 49.3, 141.95 30.17 M100.52 81.38 C113.59 67.56, 127.93 51.95, 143.34 33.54 M102.59 82.59 C115.89 65.65, 129.23 52.24, 143.75 33.82 M109.18 77.51 C117.2 70.45, 124.67 60.01, 142.94 37.35 M108.94 79.35 C116.13 71.44, 125.21 61.31, 145.26 39.23 M117.39 78.57 C126.65 66.62, 134.82 56.7, 142.69 46.67 M117.18 77.35 C126.54 65.95, 137.02 53.87, 143.27 45.25 M124.35 73.12 C133.63 66.48, 137.63 55.33, 143.12 52.71 M126.18 72.6 C129.74 67.97, 134.85 61.53, 144.15 52.51 M23.87 73.15 C23.87 73.15, 23.87 73.15, 23.87 73.15 M23.87 73.15 C23.87 73.15, 23.87 73.15, 23.87 73.15 M33.74 74.85 C22.96 67.02, 13.4 56.84, 6.09 53.38 M35.02 76.77 C26.76 71.36, 20.22 64.24, 7 51.59 M41.95 78.81 C31.2 71.51, 22.09 60.96, 4.72 48.09 M43.3 79.61 C28.81 67.6, 15.49 54.34, 6.37 47.25 M55.09 83.01 C36.84 69.89, 22.84 58.51, 5.43 39.59 M52.98 83.6 C36.24 67.12, 18.09 52.28, 5.84 40.63 M58.87 81.1 C41.44 64.73, 21.1 49.69, 2.28 32.59 M56.15 80.66 C43.33 69.22, 29.26 56.84, 2.32 33.43 M61.75 79.46 C43.73 61.74, 22.06 45.76, 5.17 31.41 M62.87 81.17 C46.54 66.69, 31.3 53.51, 5.88 29.51 M67.67 80.72 C45.48 59.5, 23.15 39.48, 8.83 26.58 M69.46 80.83 C51.19 65.96, 34.6 51.93, 8.25 27.04 M73.73 81.82 C55.43 64.56, 39.96 46.97, 9.79 24.37 M73.78 80.21 C52.78 61.55, 29.89 41.37, 9.4 23.39 M81.33 80.48 C58.4 60.99, 34.46 39.08, 11.79 19.15 M81.89 80.69 C57.1 59.08, 31.68 37.75, 12.46 20.99 M85.51 79.63 C64.58 60.46, 44.98 40.86, 16.8 15.87 M86.96 80.21 C62.38 58.74, 36.23 36.1, 14.37 17.17 M92.62 82.98 C65.2 54.53, 34.31 30.01, 15.74 15.02 M94.53 80.43 C71.45 60.35, 48.03 40.24, 18.06 14.64 M97.38 80.25 C70.92 54.91, 39.59 30.3, 20.78 11.69 M97.11 79.29 C72 57.48, 46.37 36.66, 22.47 13.94 M101.59 78.65 C86.7 61.54, 68.87 49.05, 24.54 9.99 M102.45 77.95 C80.88 59.84, 61.21 40.94, 25.13 11.31 M108.19 77.44 C91 59.99, 71.92 46.58, 27.38 8.73 M107.17 76.84 C87.13 58.38, 65.78 39.57, 29.14 9.78 M112.41 72.91 C90.43 59.74, 72.92 42.07, 34.6 9.06 M111.46 73.98 C86.39 52.76, 60.73 31.23, 33.91 6.32 M115.14 74.71 C96.94 59.2, 79.27 45.39, 39.54 4.98 M116.04 72.84 C94.27 52.61, 70.74 33.15, 37.76 5.69 M120.3 70.33 C101.39 51.83, 79.34 34.44, 42.18 4.26 M121.07 72.21 C96.11 51.91, 74.06 32.91, 42.17 2.9 M123.72 72.01 C99.93 48.55, 72.85 24.97, 44.04 2.22 M124.61 70.56 C105.79 55.78, 88.2 38.11, 46.18 2.32 M129.26 68.61 C107.02 49.16, 84.7 31.62, 51.05 -0.58 M128.26 67.33 C106.99 49.92, 87.12 33.43, 48.86 -1.09 M130.96 65.13 C99.26 41.79, 70.18 14.42, 53.71 -0.02 M130.94 65.92 C110.4 46.89, 89.93 28.25, 54.98 -0.11 M134.12 63.89 C110.34 41.83, 86.66 23.36, 61.62 -1.93 M133.47 62.31 C108.09 40.88, 81.92 17.88, 61.2 -1.25 M137.73 60.86 C110.35 38.82, 83.9 13.42, 67.46 -0.47 M136.6 58.75 C115.14 41.82, 93.8 23.27, 67.48 0.23 M139.04 57.37 C122.44 41.97, 103.85 24.94, 74.05 0.28 M139.13 57.01 C120.39 40.66, 101.23 24.57, 73.82 0.21 M142.73 55.81 C118.73 32.73, 92.07 11.58, 80.24 -1.34 M142.64 53.46 C119.7 35.64, 98.29 15.51, 79.66 -0.51 M145.49 51.37 C120.01 31.01, 97.94 10.13, 88.57 1.83 M145.64 50.27 C130.39 39.69, 118.02 27.27, 87.09 1.64 M145.92 44.4 C130.59 32.94, 119.83 22.55, 93.82 1.53 M145.04 47.18 C125.39 29.41, 105.59 12.44, 93.01 0.11 M143.18 41.4 C134.95 32.23, 125.35 23.59, 98.47 -0.32 M144.32 39.97 C134.48 31.01, 125.42 22.63, 98.09 1.39 M145.59 34.78 C132 26.43, 123.58 16.95, 107.29 5.43 M145.74 35.6 C134.68 27.85, 125.83 20, 108.99 3.42 M143.25 30.59 C136.82 25.54, 131.48 17.61, 118.16 6.37 M144.51 29.43 C139.7 24.57, 132.52 19.75, 118.69 6.27" stroke="#ced4da" stroke-width="0.5" fill="none"></path><path d="M58.74 0.45 C69.81 -1.25, 85.15 0.93, 96.59 2.98 C108.02 5.04, 119.58 7.93, 127.36 12.78 C135.13 17.63, 140.68 25.3, 143.25 32.1 C145.82 38.9, 145.94 46.93, 142.77 53.59 C139.61 60.25, 132.67 67.26, 124.26 72.07 C115.84 76.88, 103.85 80.55, 92.29 82.46 C80.73 84.37, 66.3 85.09, 54.9 83.55 C43.51 82.01, 32.58 77.97, 23.95 73.22 C15.32 68.47, 6.74 61.56, 3.14 55.07 C-0.45 48.58, 0.09 40.96, 2.38 34.29 C4.68 27.63, 9.37 20.49, 16.92 15.08 C24.47 9.67, 38.23 4.36, 47.66 1.83 C57.08 -0.7, 66.97 0.09, 73.47 -0.1 C79.97 -0.28, 86.73 0.05, 86.64 0.72 M65.53 -0.44 C76.79 -1.4, 91.95 1.02, 103.11 4.05 C114.26 7.07, 125.36 12.33, 132.45 17.7 C139.54 23.08, 144.18 29.58, 145.64 36.29 C147.1 42.99, 145.5 51.8, 141.23 57.93 C136.96 64.05, 129.28 68.64, 120 73.04 C110.72 77.45, 97.27 82.92, 85.55 84.36 C73.83 85.8, 60.75 84.06, 49.69 81.7 C38.62 79.34, 26.93 75.5, 19.15 70.2 C11.38 64.89, 5.79 56.49, 3.04 49.87 C0.29 43.25, -0.72 36.63, 2.65 30.49 C6.02 24.35, 14.7 17.95, 23.28 13.02 C31.85 8.09, 47.01 2.85, 54.09 0.92 C61.16 -1.02, 63.88 1.64, 65.75 1.43 C67.62 1.22, 64.96 -1.04, 65.31 -0.32" stroke="#000000" stroke-width="1" fill="none"></path></g><g transform="translate(755 931.1666666666667) rotate(0 61.5 12.5)"><text x="61.5" y="18" font-family="Virgil, Segoe UI Emoji" font-size="20px" fill="#000000" text-anchor="middle" style="white-space: pre;" direction="ltr">Fin del juego</text></g><g stroke-linecap="round"><g transform="translate(797.8410824256034 812.159626424509) rotate(352.82016713891545 1.7829713419839663 43.33977311821582)"><path d="M-1.02 -0.74 C-0.13 13.76, 3.87 73.07, 4.58 87.42 M0.65 1.49 C1.51 15.64, 3.75 71.75, 4 85.86" stroke="#000000" stroke-width="1" fill="none"></path></g><g transform="translate(797.8410824256034 812.159626424509) rotate(352.82016713891545 1.7829713419839663 43.33977311821582)"><path d="M-8.35 59.17 C-2.6 63.63, -3.44 71.01, 3.36 87.12 M-7.2 57.44 C-5.05 65.24, -1.95 72.67, 3.76 85.84" stroke="#000000" stroke-width="1" fill="none"></path></g><g transform="translate(797.8410824256034 812.159626424509) rotate(352.82016713891545 1.7829713419839663 43.33977311821582)"><path d="M12.16 58.54 C13.07 62.97, 7.38 70.5, 3.36 87.12 M13.31 56.81 C10.1 64.83, 7.84 72.42, 3.76 85.84" stroke="#000000" stroke-width="1" fill="none"></path></g></g><g stroke-linecap="round" transform="translate(10 748.6666666666667) rotate(0 117.5 43.5)"><path d="M0.51 0.34 C75.11 -0.34, 151.75 -1.33, 233.55 1.66 M0.6 0.01 C53.26 -0.49, 107.41 -1.25, 235.74 -0.19 M234.69 -0.49 C232.56 25.74, 234.99 53.29, 233.82 85.83 M235.35 -0.5 C235.65 21.26, 235.31 41.2, 235.16 86.28 M236.27 86.19 C182.44 87.1, 125.43 85.03, -1.22 87.22 M234.93 86.53 C157.96 85.02, 81.58 85.2, 0.79 87.3 M-0.25 85.8 C-1.5 53.91, -1.55 20.61, -1.2 -0.12 M0.38 87.47 C-1.31 55.15, 0.3 23.27, -0.22 -0.15" stroke="#000000" stroke-width="1" fill="none"></path></g><g transform="translate(22 770.1666666666667) rotate(0 105.5 25)"><text x="105.5" y="18" font-family="Virgil, Segoe UI Emoji" font-size="20px" fill="#000000" text-anchor="middle" style="white-space: pre;" direction="ltr">El jugador B tiene la</text><text x="105.5" y="43" font-family="Virgil, Segoe UI Emoji" font-size="20px" fill="#000000" text-anchor="middle" style="white-space: pre;" direction="ltr">palabra mas larga</text></g><g stroke-linecap="round"><g transform="translate(408 797.6666666666667) rotate(0 -74.92567214571875 -3.4383977971971262)"><path d="M-0.46 0.55 C-25.48 -0.67, -125.52 -6.34, -150.95 -7.43 M1.5 -0.21 C-23.52 -1.25, -125.98 -4.85, -151.35 -6.11" stroke="#000000" stroke-width="1" fill="none"></path></g><g transform="translate(408 797.6666666666667) rotate(0 -74.92567214571875 -3.4383977971971262)"><path d="M-121.84 -13.45 C-130.11 -14.95, -134.35 -9.17, -151.53 -6.24 M-123.59 -15.31 C-131.25 -12.17, -138.79 -9.22, -152.24 -6.26" stroke="#000000" stroke-width="1" fill="none"></path></g><g transform="translate(408 797.6666666666667) rotate(0 -74.92567214571875 -3.4383977971971262)"><path d="M-122.69 7.05 C-130.75 0.8, -134.79 1.82, -151.53 -6.24 M-124.44 5.2 C-131.68 2.71, -138.98 0.05, -152.24 -6.26" stroke="#000000" stroke-width="1" fill="none"></path></g></g><g stroke-linecap="round" transform="translate(39.75 923.1666666666667) rotate(0 81 55.5)"><path d="M83.8 -0.49 C108.16 19.58, 137.51 37.93, 160.42 57.88 M82.25 -0.97 C101.4 13.25, 120.73 27.91, 161.13 56.95 M163.25 55.21 C138.47 74.27, 112.77 88.81, 81.51 109.66 M161.35 55.02 C137.34 73.44, 111.72 91.22, 82.19 110.65 M82.51 111.3 C53.49 94.39, 26.36 72.58, 1.42 56.3 M82.41 110.9 C51.75 90.76, 21.33 70.68, 0.81 55.42 M1.64 55.09 C25.86 41.24, 52.09 21.8, 80.59 0.18 M0.04 55.29 C27.64 37.1, 54.69 19.01, 82.84 0.4" stroke="#000000" stroke-width="1" fill="none"></path></g><g transform="translate(82.75 965.1666666666667) rotate(0 39 12.5)"><text x="0" y="18" font-family="Virgil, Segoe UI Emoji" font-size="20px" fill="#000000" text-anchor="start" style="white-space: pre;" direction="ltr">esValido</text></g><g transform="translate(208.25 943.6666666666667) rotate(0 48.5 12.5)"><text x="0" y="18" font-family="Virgil, Segoe UI Emoji" font-size="20px" fill="#000000" text-anchor="start" style="white-space: pre;" direction="ltr">Verdadero</text></g><g transform="translate(231.5833333333331 1125) rotate(0 26 12.5)"><text x="0" y="18" font-family="Virgil, Segoe UI Emoji" font-size="20px" fill="#000000" text-anchor="start" style="white-space: pre;" direction="ltr">Falso</text></g><g stroke-linecap="round"><g transform="translate(207.68548052705853 982.4672010349723) rotate(0 66.09905891896284 -0.6963492948989369)"><path d="M0.2 1.16 C22.48 0.79, 110.96 -1.98, 133.35 -2.55 M-1.15 0.73 C20.98 0.5, 109.77 -1.18, 132.36 -1.51" stroke="#000000" stroke-width="1" fill="none"></path></g><g transform="translate(207.68548052705853 982.4672010349723) rotate(0 66.09905891896284 -0.6963492948989369)"><path d="M106.28 9.09 C110.52 8.1, 118.73 3.65, 131.56 -1.01 M103.68 9.31 C109.21 8.22, 115.95 5.81, 131.69 -0.89" stroke="#000000" stroke-width="1" fill="none"></path></g><g transform="translate(207.68548052705853 982.4672010349723) rotate(0 66.09905891896284 -0.6963492948989369)"><path d="M105.93 -11.43 C110.22 -6.76, 118.52 -5.55, 131.56 -1.01 M103.33 -11.21 C108.86 -8.12, 115.67 -6.36, 131.69 -0.89" stroke="#000000" stroke-width="1" fill="none"></path></g></g><g transform="translate(365.25 961.1666666666667) rotate(0 65 12.5)"><text x="0" y="18" font-family="Virgil, Segoe UI Emoji" font-size="20px" fill="#000000" text-anchor="start" style="white-space: pre;" direction="ltr">Victoria de B</text></g><g stroke-linecap="round" transform="translate(348.25 953.1666666666667) rotate(0 81.5 19)"><path d="M-1.58 1.88 C50.56 0.51, 102.49 0.61, 161.06 -0.72 M-0.87 0.95 C35.74 0.58, 70.45 0.49, 162.6 0.76 M162.51 -1.34 C163.54 12.36, 165.17 26.48, 161.03 39.87 M163.19 -0.35 C163.5 8.89, 162.88 18.19, 163.15 37.3 M164.42 38.3 C100.35 36.86, 34.29 37.4, -0.19 37.77 M163.81 37.42 C110.51 39.42, 56.97 39.33, -0.46 38.42 M-1.41 38.18 C0.38 23.62, -0.88 7.69, -1.43 1.04 M0.84 38.4 C-0.3 28.4, 0.57 18.3, -0.34 -0.97" stroke="#000000" stroke-width="1" fill="none"></path></g><g stroke-linecap="round"><g transform="translate(126.66333333333336 1049.8333333333335) rotate(0 149.3111555451696 61.0834327657754)"><path d="M-0.95 1.13 C48.39 21.39, 247.48 101.42, 297.2 121.49 M0.76 0.68 C50.39 20.56, 250.3 99.1, 299.57 119.49" stroke="#000000" stroke-width="1" fill="none"></path></g><g transform="translate(126.66333333333336 1049.8333333333335) rotate(0 149.3111555451696 61.0834327657754)"><path d="M271.47 117.41 C281.88 118.33, 293.88 117.59, 298.85 117.85 M270.54 118.68 C277.29 118.32, 284.18 118.83, 300.33 120.15" stroke="#000000" stroke-width="1" fill="none"></path></g><g transform="translate(126.66333333333336 1049.8333333333335) rotate(0 149.3111555451696 61.0834327657754)"><path d="M279.12 98.37 C286.48 106.78, 295.45 113.59, 298.85 117.85 M278.19 99.64 C283.17 103.64, 288.28 108.58, 300.33 120.15" stroke="#000000" stroke-width="1" fill="none"></path></g></g><g stroke-linecap="round"><g transform="translate(121 848.6666666666667) rotate(0 -0.7496135033667315 30.485141802025055)"><path d="M0.68 -0.38 C0.49 10.11, -1.79 52.1, -2.18 62.59 M-0.42 -1.62 C-0.18 8.55, 0.3 50.42, -0.09 60.78" stroke="#000000" stroke-width="1" fill="none"></path></g><g transform="translate(121 848.6666666666667) rotate(0 -0.7496135033667315 30.485141802025055)"><path d="M-10.72 30.52 C-7.04 37.41, -4.9 44.69, 1.54 62.09 M-9.68 31.67 C-7.72 40.97, -4.6 50.07, -0.55 61.48" stroke="#000000" stroke-width="1" fill="none"></path></g><g transform="translate(121 848.6666666666667) rotate(0 -0.7496135033667315 30.485141802025055)"><path d="M9.8 30.71 C9.06 37.68, 6.78 44.92, 1.54 62.09 M10.84 31.86 C6.64 41.2, 3.59 50.24, -0.55 61.48" stroke="#000000" stroke-width="1" fill="none"></path></g></g><g stroke-linecap="round"><g transform="translate(519 971.6666666666667) rotate(0 105.16453398178334 -9.890869501978159)"><path d="M0.87 0.25 C35.49 -3.15, 173.38 -16.94, 208.18 -20.03 M-0.14 -0.67 C34.82 -3.98, 175.56 -15.76, 210.47 -19.03" stroke="#000000" stroke-width="1" fill="none"></path></g><g transform="translate(519 971.6666666666667) rotate(0 105.16453398178334 -9.890869501978159)"><path d="M183.7 -7.69 C190.72 -9.67, 202.77 -14.12, 210.2 -20.53 M183.5 -6.84 C193.94 -10.53, 202.84 -14.54, 211.02 -19.93" stroke="#000000" stroke-width="1" fill="none"></path></g><g transform="translate(519 971.6666666666667) rotate(0 105.16453398178334 -9.890869501978159)"><path d="M181.9 -28.14 C189.58 -23.22, 202.24 -20.77, 210.2 -20.53 M181.69 -27.28 C192.75 -23.48, 202.31 -20.01, 211.02 -19.93" stroke="#000000" stroke-width="1" fill="none"></path></g></g><g transform="translate(389.5 1185.3333333333335) rotate(0 54.5 12.5)"><text x="0" y="18" font-family="Virgil, Segoe UI Emoji" font-size="20px" fill="#000000" text-anchor="start" style="white-space: pre;" direction="ltr">Nadie gana</text></g><g stroke-linecap="round" transform="translate(356.5 1178.3333333333335) rotate(0 81.5 19)"><path d="M-0.21 0.2 C35.73 -0.84, 74.31 0.98, 162.96 0.16 M0.92 0.24 C45.04 -0.29, 87.43 -0.59, 163.13 1 M162.51 -0.41 C163.75 12.69, 161.59 21.49, 161.31 38.04 M162.86 0.67 C163.28 9.82, 163.53 18.37, 162.08 38.88 M164.56 38.92 C112.39 37.95, 61.22 36.41, -1.48 36.88 M163.72 38.47 C100.63 37.63, 38.51 38.65, -0.01 38.55 M-1.05 38.58 C-1.77 26.65, -0.84 18.18, -1.96 0.17 M0.37 37.4 C-0.6 25.21, -1.03 14.45, -0.4 -0.38" stroke="#000000" stroke-width="1" fill="none"></path></g><g stroke-linecap="round" transform="translate(712.4642857142856 622.3809523809525) rotate(0 155 37.85714285714289)"><path d="M-1.25 1.2 C74.65 0.25, 146.98 -0.19, 311.03 0.23 M0.5 0.69 C87.18 2, 173.76 2.04, 310.67 0.37 M311.21 -0.76 C311.68 25.91, 311.28 54.62, 311.76 76.25 M309.71 0.95 C309.98 28.63, 311.13 56.39, 310.62 75.94 M308.6 76.04 C198.85 78.33, 86.75 78.98, 1.18 76.97 M309.96 76.25 C228.16 76.38, 145.21 76.32, 0.17 75.89 M1.72 75.99 C2.23 54.4, 0.57 34.31, -0.5 1.05 M0.08 74.77 C-0.5 48.5, -0.09 20.99, -0.17 -0.36" stroke="#000000" stroke-width="1" fill="none"></path></g><g transform="translate(734.9642857142856 638.0952380952382) rotate(0 132.5 25)"><text x="132.5" y="18" font-family="Virgil, Segoe UI Emoji" font-size="20px" fill="#000000" text-anchor="middle" style="white-space: pre;" direction="ltr">Los dos jugadores tienen</text><text x="132.5" y="43" font-family="Virgil, Segoe UI Emoji" font-size="20px" fill="#000000" text-anchor="middle" style="white-space: pre;" direction="ltr">una palabra igual de larga</text></g><g stroke-linecap="round"><g transform="translate(715.3214285714286 535.2380952380954) rotate(0 77.77023883032814 39.76024342273362)"><path d="M0.11 -0.05 C26.41 13.32, 130.98 66.24, 156.83 79.41 M-1.29 -1.12 C25.03 12.48, 130.55 67.16, 156.47 80.64" stroke="#000000" stroke-width="1" fill="none"></path></g><g transform="translate(715.3214285714286 535.2380952380954) rotate(0 77.77023883032814 39.76024342273362)"><path d="M126.64 78.62 C132.28 76.79, 138.14 78.88, 155.16 80.01 M126.86 75.95 C136.16 77.94, 145.11 78.47, 156.5 80.75" stroke="#000000" stroke-width="1" fill="none"></path></g><g transform="translate(715.3214285714286 535.2380952380954) rotate(0 77.77023883032814 39.76024342273362)"><path d="M136.09 60.41 C139.52 62.61, 143.3 68.71, 155.16 80.01 M136.32 57.74 C142.66 65.5, 148.62 71.79, 156.5 80.75" stroke="#000000" stroke-width="1" fill="none"></path></g></g><g stroke-linecap="round" transform="translate(1136.75 615.2380952380953) rotate(0 120 48.57142857142861)"><path d="M5.32 36.42 C5.32 36.42, 5.32 36.42, 5.32 36.42 M5.32 36.42 C5.32 36.42, 5.32 36.42, 5.32 36.42 M2.48 44.51 C13.55 34.84, 23.43 22.97, 24.8 17.49 M4.68 42.86 C9.02 37.89, 15.29 30.4, 26.15 17.09 M1.92 52.02 C16.02 37.74, 27.12 25.41, 31.99 17.82 M2.87 51.37 C9.01 43.61, 17.06 34.99, 33.37 16.17 M3.04 55.4 C16.24 43.53, 29.5 29.49, 39.39 12.06 M3.05 56.66 C18.08 40.05, 31.72 23.53, 41.78 13.86 M4.56 59.22 C16.48 47.84, 28.94 36.81, 50.16 9.86 M5.32 61.38 C18.73 46.03, 33.37 29.96, 49.68 10.49 M6.44 62.98 C17.11 51.48, 28.46 36.46, 56.73 9.4 M7.34 63.47 C19.86 51.67, 30.86 36.99, 55.87 7.36 M8.98 67.43 C29.76 47.22, 46.84 27.41, 61.96 6.51 M10.74 66.03 C25.98 51.5, 38.58 35.05, 64.11 5.4 M14.49 71.52 C31.62 51.39, 47.6 29.35, 68.76 7.07 M14.31 69.83 C31.48 48.83, 48.18 28.21, 68.31 7.12 M17.68 71.44 C29.63 61.09, 39.03 43.4, 77 2.56 M15.75 73.94 C34.31 51.84, 52.32 31.21, 76.86 3.74 M18.03 74.58 C37.22 51.04, 60.66 27.48, 81.64 1.6 M19.54 75.21 C41.26 50.64, 62.22 26.5, 82.11 2.28 M21.51 75.82 C37.6 58.69, 54.27 42.15, 89.3 3.39 M22.09 78.18 C46.84 50.62, 71.32 21.62, 88.46 2.57 M26.96 81.25 C52.74 52.63, 75.32 22.43, 94.23 1.94 M25.55 80.28 C39.29 63.55, 54.13 47.37, 93.75 1.06 M30.44 81.47 C50.08 58.12, 71.85 34.73, 99.3 2.66 M29.57 80.78 C51.97 53.97, 74.85 29.58, 97.66 2.93 M32.33 82.98 C49.67 64.73, 68.38 45.76, 104.99 3.01 M33.85 81.7 C55.01 59.45, 75.16 35.91, 104.2 2.32 M39.61 83.35 C67.06 51.7, 94.44 20.62, 111.86 0.6 M37.91 84.52 C64.97 55.66, 90.22 25.57, 109.51 2.04 M42.3 85.01 C60.47 62.05, 83.53 35.82, 117.5 1.84 M42.89 85.6 C69.14 55.52, 93.9 26.4, 116.39 1.68 M45.85 89.23 C60.01 68.05, 77.41 50.7, 122.31 2.28 M45.43 87.64 C74.21 54.84, 104.63 21.71, 121.36 1.62 M50.11 90.39 C78.19 57.19, 110.09 24.78, 127.17 3.01 M50.05 89.58 C79.19 56.02, 107.89 21.91, 125.91 0.95 M54.47 89.69 C73.13 65.66, 96.18 41.13, 129.8 0.05 M53.75 89.83 C69.28 71.46, 86.7 51.71, 130.19 2.37 M57.45 92.73 C81.29 65.15, 105.93 37.1, 137.15 2.18 M59 91.43 C73.08 74.55, 88.56 55.55, 136.94 1.69 M63.18 93.63 C88.84 65.38, 113.86 33.55, 140.48 1.84 M63.73 91.75 C80.2 71.75, 97.08 53.84, 141.89 2.19 M68.4 93.95 C81.18 76.79, 100.41 58.86, 145.68 2.78 M67.66 92.93 C87.16 70.84, 106.91 48.08, 145.6 1.9 M73.52 93.51 C93.79 67.34, 116.58 39.46, 151.68 3.65 M72.9 94.31 C92.26 70.38, 112.59 47.39, 151.3 2.7 M78.91 91.8 C101.59 66.37, 125.11 39.86, 156.8 1.61 M77.63 93.35 C107.75 60.23, 135.44 26.93, 156.64 3.57 M82.74 96.85 C110.26 59.39, 141.88 23.7, 161.14 4.01 M81.38 94.1 C109.15 64.61, 134.28 35.07, 161.56 3.73 M88.61 94.84 C105.56 77.58, 119.14 55.2, 164.95 3.98 M86.07 94.39 C107.27 71.68, 126.45 47.73, 166.08 3.89 M90.59 95.74 C110.61 76.74, 125.94 52.73, 170.38 4.8 M90.58 96.96 C118.04 64.53, 147.18 30.86, 169.44 4.11 M96.94 94.92 C111.65 76, 132.26 54.15, 173.74 5.3 M95.78 96.73 C111.66 76.64, 129.53 57.47, 173.91 6.8 M98.53 99.56 C121.25 75.32, 143.08 47.68, 178.02 5.7 M100.51 98.69 C129.01 64.59, 158.28 30.57, 178.63 8.11 M103.77 98.47 C134.47 62.81, 163.31 31.69, 183.82 6.52 M105.83 97.29 C133.93 66.21, 162.97 31.25, 184.05 8.42 M109.8 98.53 C141.85 65.59, 168.24 27.88, 187.12 8.95 M109.77 98.52 C136.71 68.29, 162.92 38.36, 187.11 10.23 M114.72 96.98 C133.72 78, 152.73 54.74, 192.3 11.42 M116.89 97.68 C136.43 75.29, 155.3 53.92, 191.69 10.37 M121.44 96.65 C140.17 73.4, 163.66 50.47, 194.5 13.83 M121.63 98.2 C146.78 70.16, 172.05 41.04, 196.46 11.68 M124.57 100.26 C146.76 72.46, 169.89 46.84, 200.05 14.83 M126.63 99.5 C145.54 76.63, 163.55 53.89, 198.65 13.96 M130.92 100.28 C149.39 73, 169.82 53.11, 202.76 17.23 M130.62 98.44 C158.57 66.64, 185.36 37.53, 203.89 14.89 M135.82 96.91 C163.8 67.7, 189.95 37.19, 206.38 16.13 M136.26 98.8 C161.66 70.61, 186.75 41.91, 208.02 15.74 M142.14 100.31 C168.33 72.65, 190.57 41.99, 213.6 19.55 M142.54 99.16 C167.17 69.04, 192.64 37.92, 211.55 17.53 M146.08 99.61 C163.18 78.47, 178.39 62.6, 214.42 22.3 M148 97.36 C173.24 71.21, 196.16 42.06, 215.54 20.49 M154.76 98.68 C169.39 76.72, 188.61 56.11, 217.19 20.31 M153.8 95.97 C179.24 67.21, 203.28 39.79, 219.92 21.97 M162.06 94.84 C180.31 72.24, 202.79 47.95, 220.34 25.85 M160.97 96.43 C179.15 74.26, 197.98 53.12, 222.86 25.17 M164.24 96.93 C183.26 76.67, 198.67 58.94, 224.09 29.06 M165.46 94.76 C187.18 70.78, 210.33 45.02, 225.7 28.3 M172.3 94.67 C191.05 76.91, 206.49 55.94, 230.11 28.62 M171.97 94.48 C187.43 77.82, 200.2 61.21, 228.25 30.75 M178.44 94.87 C197.15 69.34, 219.44 46.16, 233.3 33.88 M177.81 92.33 C191.13 79.5, 203.42 65.38, 231.86 32.81 M185.03 89.97 C197.92 76.6, 208.44 63.43, 233.45 35.49 M185.34 92.44 C199.45 74.22, 212.27 58.77, 234.6 33.87 M191.02 89.67 C204.2 73.59, 218.3 59.61, 237.62 36.48 M191.79 89.49 C209.72 69.11, 228.11 49.24, 237.03 37.06 M202.26 84.62 C210.51 73.84, 220.85 64.6, 237.9 41.19 M201.05 85.95 C212.53 72.67, 223.15 61.23, 239.44 41.72 M210 82.5 C218.44 73.97, 225.39 64.12, 239.68 48.11 M209.56 81.72 C220.25 68.4, 231.27 56.66, 239.52 47.81 M218.48 77.64 C226.23 70.99, 230.69 62.97, 240.75 53.25 M219.38 77.38 C226.28 66.9, 236.3 58.68, 240.92 52.88 M17.06 74.88 C17.06 74.88, 17.06 74.88, 17.06 74.88 M17.06 74.88 C17.06 74.88, 17.06 74.88, 17.06 74.88 M28.14 77.9 C23.27 75.01, 15.27 67.75, 1.61 59.03 M28.42 80.67 C19.59 72.03, 10.19 63.87, 2.31 56.47 M40.89 83.32 C28.48 77.26, 18.12 65.34, 5.19 54.75 M40.86 84.98 C28.84 72.64, 14.34 62.39, 4.52 53.38 M52.33 88.28 C36.68 75, 26.56 64.32, 4.87 47.38 M50.75 89.36 C37.7 75.43, 23.55 64.88, 4.55 49.73 M54.68 88.12 C44.09 77.49, 30.49 65.79, 6.75 44.51 M54.75 86.71 C44.58 77.08, 32.28 67.22, 5.69 44.27 M63.51 88.62 C45.52 74.95, 33.49 63.65, 6.85 40.35 M62.15 87.68 C46.72 74.24, 34.22 63.26, 7.33 39.78 M71 88.69 C46.03 66.36, 18.1 44.86, 7.72 33.31 M69.49 89.03 C51.12 71.72, 31.94 56.48, 6.98 34.25 M75.1 88.46 C54.12 71.9, 29.59 49.46, 8.84 29.66 M75.21 89.15 C60.99 77.19, 47.83 64.11, 10.15 32.05 M82.15 89.56 C58.37 68.81, 35.3 45.1, 11.66 30.58 M83.71 90.04 C62.89 73.1, 41.19 53.78, 12.83 28.55 M90.05 91.46 C66.69 72.66, 43.93 52.07, 13.81 26.98 M91.91 91.11 C75.38 77.17, 59.03 64.67, 15.07 26.56 M100.34 93.1 C81.08 78.86, 65.58 66.56, 18.46 21.86 M98.82 92.4 C76.54 72.74, 52.21 52.22, 19.85 24.16 M105.31 93.18 C74.07 69.24, 47.38 41.16, 23.41 21.23 M106.04 94.44 C83.13 73.86, 57.62 52.31, 21.61 21.27 M109.44 92.38 C89.42 75.82, 70.38 55.78, 25.74 19.81 M110.7 94.04 C88.26 72.24, 65.38 52.7, 24.26 18.85 M118.22 91.73 C83.16 63.58, 52.66 35.56, 30.45 14.55 M117.67 94.22 C88.13 66.9, 58.18 42.55, 29.35 16 M125.56 93.55 C89.25 62.37, 52.07 33.84, 33.07 13 M124.37 92.68 C91.7 65.54, 60.26 37.85, 32.04 13.92 M131.12 95.73 C96.42 66.39, 64.77 36.77, 38.75 13.59 M129.65 93.7 C108.28 76.42, 85.34 55.24, 37.69 11.72 M137.23 94.05 C97.03 62.59, 61.98 26.92, 42.94 11.22 M136.04 93.97 C103.77 65.96, 70.64 37.31, 41.95 11.6 M142.24 92.41 C119.76 70.85, 92.53 48.34, 45.99 9.62 M142.62 94.42 C111.61 67.13, 81 39.22, 46.77 10.71 M149.66 93.88 C123.21 72.04, 94.91 48.82, 48.03 8.87 M147.51 92.78 C124.04 73.89, 101.05 53.27, 50.77 8.35 M151.02 92.24 C118.85 63.83, 86.45 33.58, 53.09 7.12 M152.25 92.77 C120.33 64.85, 89.76 37.94, 54.76 7.1 M160.25 91.62 C120.81 58.64, 81.1 23.95, 57.21 6.19 M159.57 91.21 C130.47 67.76, 101.2 42.71, 59.32 6.13 M163.56 90.2 C139.87 71.36, 120.37 53.35, 64.12 3.81 M162.73 91.34 C142.65 72.31, 120.79 53, 63.88 4.91 M167.08 88.4 C145.8 71.43, 125.38 53.26, 68.78 3.35 M168.56 90.56 C138.84 63.42, 108.43 37.96, 67.71 2.52 M172.2 89.88 C152.88 70.79, 131.35 52.38, 72.85 1.31 M172.3 88.99 C136.33 58.02, 99.71 26.17, 72.86 0.71 M179.45 86.52 C138.68 54.7, 97.93 21.58, 78 -0.96 M178.87 88 C140.46 55.33, 104.18 20.54, 76.84 1.21 M183.91 87.39 C147.17 53.9, 108.73 23.36, 84.79 2.37 M183.71 86.73 C146 55.34, 108.7 21.5, 85.02 0.88 M192.32 88.25 C165.65 67.08, 141.85 45.4, 88.81 -0.8 M191.39 87.25 C152.04 53.35, 113.35 19.88, 90.12 0.88 M196.65 88.09 C166.75 61.58, 136.15 33.73, 94.8 -1.54 M194.52 86.51 C164.41 59.82, 136.27 33.29, 95.87 -0.83 M201.07 83.13 C171.83 61.12, 146.34 38.33, 100.05 -0.95 M198.27 84.02 C172.47 62.85, 145 38.33, 101.74 -0.93 M204.25 83.98 C174.28 56.69, 147.74 33.86, 105.48 -1.81 M202.02 82.53 C168.57 51.36, 131.68 21.08, 107.52 -0.89 M207.79 80.49 C187.41 61, 164.23 42.19, 114.8 -0.35 M207.26 80.45 C175.66 53.87, 144.85 26.92, 113.93 -1.15 M210.04 77.48 C177.79 48.69, 142.35 20.78, 117.86 -1.25 M210.84 79.11 C186.85 58.62, 163.94 38.6, 119.34 -0.53 M215.52 76.92 C186 55.12, 160.08 28.76, 127.05 -0.72 M215.85 76.58 C181.63 49.11, 149.46 21.83, 125.7 0.18 M220.52 76.98 C189.16 48.75, 159.44 26.51, 132.16 2.52 M218.62 76.19 C197.27 56.1, 174.9 36.15, 132.73 0.88 M222.73 74.94 C197.17 52.12, 171.89 30.9, 139.23 2.82 M221.81 73.06 C197.14 50.17, 172.36 28.04, 140.34 1.25 M225.86 72.79 C203.98 51.85, 183.39 32.36, 146.51 0.52 M226.49 71.26 C202.18 50.49, 179.3 30.16, 145.87 1.28 M227.05 66.28 C211.36 51.19, 190.09 34.55, 153.46 1.03 M228.94 68.38 C213.5 54.69, 196.72 41.22, 152.68 1.81 M230.18 63.09 C215.03 53.25, 201.83 36.93, 161.26 3.63 M231.43 65.34 C210.9 47.67, 189.04 28.78, 159.96 3.06 M234.08 60.56 C218.32 47.79, 205.16 38.76, 165.8 4.57 M233.83 61.6 C217.73 48.82, 203.31 34.36, 167.31 3.14 M234.8 57.27 C216.66 40.83, 198.31 26.8, 174.43 2.61 M235.4 58.35 C222.04 44.83, 208.39 33.07, 172.76 5.23 M239.09 55.3 C223.06 39.87, 205.74 27.91, 184.76 6.63 M237.61 54.33 C222.33 41.33, 206.1 27.84, 183.14 6.72 M242.21 51.94 C229.54 41.23, 220.49 32.92, 192.53 10.04 M241.44 53.07 C229.56 41.03, 216.05 30.61, 193.33 11.22 M241.54 46.62 C233.62 37.81, 222.88 31.37, 200.76 12.31 M240.42 45.42 C224.74 32.53, 211.55 20.07, 202.84 13.6 M237.55 37.75 C228.16 33.06, 218.48 24.24, 211.66 15.91 M239.02 39.95 C228.69 30.58, 217.07 21.17, 211.17 16.55" stroke="#ced4da" stroke-width="0.5" fill="none"></path><path d="M76.46 2.62 C90.18 -0.4, 109.85 0, 126 0.33 C142.14 0.67, 158.98 1.81, 173.31 4.6 C187.63 7.38, 201.6 11.97, 211.95 17.05 C222.3 22.13, 230.94 28.82, 235.43 35.09 C239.91 41.37, 240.73 48.33, 238.84 54.69 C236.96 61.05, 232.14 67.59, 224.11 73.26 C216.08 78.92, 203.76 84.85, 190.66 88.68 C177.56 92.52, 161.13 95.12, 145.52 96.27 C129.9 97.42, 112.58 96.78, 96.99 95.6 C81.39 94.41, 65.27 92.62, 51.96 89.17 C38.64 85.72, 25.39 80.38, 17.07 74.89 C8.76 69.41, 4.02 62.67, 2.07 56.25 C0.12 49.83, 1.35 42.75, 5.36 36.37 C9.38 29.98, 16.21 23.15, 26.17 17.93 C36.13 12.71, 54.6 7.93, 65.13 5.06 C75.66 2.18, 82.84 1.19, 89.35 0.68 C95.86 0.16, 103.48 1.19, 104.16 1.97 M175.07 4.23 C189.37 6.48, 201.43 12.76, 211.39 18.12 C221.35 23.49, 230.47 30.14, 234.83 36.42 C239.19 42.7, 239.44 49.71, 237.56 55.82 C235.69 61.93, 231.76 67.47, 223.56 73.07 C215.37 78.68, 201.76 85.45, 188.4 89.42 C175.04 93.4, 159.07 96.04, 143.41 96.93 C127.75 97.81, 109.97 96.37, 94.45 94.74 C78.92 93.1, 63.37 90.86, 50.25 87.14 C37.14 83.42, 24.05 77.7, 15.76 72.42 C7.46 67.14, 2.06 61.49, 0.48 55.46 C-1.1 49.42, 1.77 42.78, 6.27 36.19 C10.77 29.6, 17.4 20.85, 27.49 15.91 C37.58 10.98, 52.14 9.04, 66.81 6.57 C81.47 4.1, 99.77 1.54, 115.49 1.11 C131.21 0.68, 151.19 3.29, 161.13 3.99 C171.08 4.7, 172.95 4.93, 175.15 5.34 C177.36 5.75, 175.16 5.68, 174.37 6.47" stroke="#000000" stroke-width="1" fill="none"></path></g><g transform="translate(1176.25 651.3095238095239) rotate(0 80.5 12.5)"><text x="80.5" y="18" font-family="Virgil, Segoe UI Emoji" font-size="20px" fill="#000000" text-anchor="middle" style="white-space: pre;" direction="ltr">Validar palabras</text></g><g stroke-linecap="round"><g transform="translate(1032.4642857142858 660.9523809523811) rotate(0 45.67374146284942 -0.8571565582826111)"><path d="M-0.21 -0.44 C15.1 -0.76, 75.33 -1.02, 90.76 -0.99 M-1.77 -1.71 C14.03 -1.99, 77.48 -0.41, 93.12 0.03" stroke="#000000" stroke-width="1" fill="none"></path></g><g transform="translate(1032.4642857142858 660.9523809523811) rotate(0 45.67374146284942 -0.8571565582826111)"><path d="M63.94 8.45 C68.89 9.18, 76.05 3.74, 92.21 0.57 M64.89 8.73 C76.23 5.1, 85.28 1.82, 93.17 -0.08" stroke="#000000" stroke-width="1" fill="none"></path></g><g transform="translate(1032.4642857142858 660.9523809523811) rotate(0 45.67374146284942 -0.8571565582826111)"><path d="M64.47 -12.06 C69.46 -7.05, 76.51 -8.22, 92.21 0.57 M65.42 -11.78 C76.5 -7.74, 85.35 -3.37, 93.17 -0.08" stroke="#000000" stroke-width="1" fill="none"></path></g></g><g stroke-linecap="round"><g transform="translate(1215.321428571429 716.6666666666669) rotate(0 -163.25919940670633 30.6362306783015)"><path d="M0.37 0.54 C-53.97 10.53, -271.86 50.26, -326.35 60.47 M-0.9 -0.23 C-55.29 9.84, -272.53 51.53, -326.89 61.5" stroke="#000000" stroke-width="1" fill="none"></path></g><g transform="translate(1215.321428571429 716.6666666666669) rotate(0 -163.25919940670633 30.6362306783015)"><path d="M-300.18 47.52 C-309.61 51.37, -314.43 55.92, -326.66 61.26 M-300.34 46.06 C-309.94 52.03, -318.73 56.14, -326.28 60.84" stroke="#000000" stroke-width="1" fill="none"></path></g><g transform="translate(1215.321428571429 716.6666666666669) rotate(0 -163.25919940670633 30.6362306783015)"><path d="M-296.39 67.69 C-306.93 66.08, -312.78 65.17, -326.66 61.26 M-296.55 66.22 C-307.62 65.28, -317.72 62.43, -326.28 60.84" stroke="#000000" stroke-width="1" fill="none"></path></g></g><g stroke-linecap="round"><g transform="translate(1258.1785714285716 719.5238095238096) rotate(0 -380.91419626381713 176.50469844188706)"><path d="M-0.08 0.56 C-48.4 57.06, -164.05 293.95, -290.82 340 C-417.58 386.04, -682.33 287.45, -760.64 276.84 M-1.58 -0.2 C-49.89 56.41, -164.5 295.53, -291.19 341.41 C-417.89 387.29, -683.48 286.31, -761.75 275.08" stroke="#000000" stroke-width="1" fill="none"></path></g><g transform="translate(1258.1785714285716 719.5238095238096) rotate(0 -380.91419626381713 176.50469844188706)"><path d="M-730.99 273.75 C-739.03 271.55, -743.5 272.2, -760.8 274.35 M-732.34 272.56 C-741.25 272.35, -750.05 274.2, -760.78 275.67" stroke="#000000" stroke-width="1" fill="none"></path></g><g transform="translate(1258.1785714285716 719.5238095238096) rotate(0 -380.91419626381713 176.50469844188706)"><path d="M-735.95 293.67 C-743.03 286.97, -746.38 283.12, -760.8 274.35 M-737.3 292.47 C-744.75 286.1, -752.03 281.84, -760.78 275.67" stroke="#000000" stroke-width="1" fill="none"></path></g></g><g stroke-linecap="round"><g transform="translate(1304.1309523809523 711.6666666666667) rotate(0 -387.52202611910997 253.65656887002007)"><path d="M-0.08 0.18 C-58.3 76.36, -220.4 374.54, -349.42 458 C-478.45 541.45, -703.58 493.78, -774.23 500.92 M-1.59 -0.76 C-59.9 75.51, -221.17 376.05, -350.07 459.36 C-478.97 542.67, -704.54 492.54, -774.96 499.11" stroke="#000000" stroke-width="1" fill="none"></path></g><g transform="translate(1304.1309523809523 711.6666666666667) rotate(0 -387.52202611910997 253.65656887002007)"><path d="M-746.04 491.04 C-755.09 492.78, -761.08 496.85, -773.4 501.08 M-747.17 490.8 C-752.49 492.53, -758.16 494.47, -775.8 499.73" stroke="#000000" stroke-width="1" fill="none"></path></g><g transform="translate(1304.1309523809523 711.6666666666667) rotate(0 -387.52202611910997 253.65656887002007)"><path d="M-746.93 511.54 C-755.88 507.37, -761.62 505.53, -773.4 501.08 M-748.06 511.31 C-753.13 508.87, -758.62 506.65, -775.8 499.73" stroke="#000000" stroke-width="1" fill="none"></path></g></g><g stroke-linecap="round" transform="translate(1010.797619047619 811.6666666666665) rotate(0 53.33333333333337 30.000000000000057)"><path d="M0.63 -1.56 C41.36 -0.34, 80.9 -0.96, 108.19 0.42 M-0.52 0.51 C21.23 -0.19, 45.06 0, 105.7 0.65 M106.09 -0.52 C107.19 20.2, 108.52 34.88, 104.75 60.05 M107.38 -0.55 C106.85 13.99, 106.72 28.61, 106.15 60.04 M108.45 58.76 C73.65 57.94, 44.14 59, -1.45 60.89 M106.88 60.93 C73.85 59.96, 41.79 59.26, 0.96 60.29 M1.67 60.49 C-1.74 46.86, -0.26 37.35, 0.8 -1.24 M0.54 60.68 C-0.5 38.38, 0.47 16.71, 0.15 0.72" stroke="#000000" stroke-width="1" fill="none"></path></g><g transform="translate(1021.4642857142858 829.1666666666665) rotate(0 36 12.5)"><text x="36" y="18" font-family="Virgil, Segoe UI Emoji" font-size="20px" fill="#000000" text-anchor="middle" style="white-space: pre;" direction="ltr">Empate</text></g><g stroke-linecap="round"><g transform="translate(1234.413238432126 716.7900031292735) rotate(0 -51.67372839239647 51.126911594455066)"><path d="M-0.31 -0.01 C-17.85 17.27, -86.97 86.42, -104.73 103.32 M1.72 -1.06 C-15.92 15.91, -87.37 84.41, -105.07 101.61" stroke="#000000" stroke-width="1" fill="none"></path></g><g transform="translate(1234.413238432126 716.7900031292735) rotate(0 -51.67372839239647 51.126911594455066)"><path d="M-91.92 76.59 C-95.19 82.23, -102.94 93.19, -106.37 102.3 M-91.93 74.54 C-94.59 80.57, -97.7 85.81, -105.09 100.99" stroke="#000000" stroke-width="1" fill="none"></path></g><g transform="translate(1234.413238432126 716.7900031292735) rotate(0 -51.67372839239647 51.126911594455066)"><path d="M-77.68 91.37 C-85.8 91.89, -98.44 97.77, -106.37 102.3 M-77.68 89.31 C-83.41 92.2, -89.48 94.37, -105.09 100.99" stroke="#000000" stroke-width="1" fill="none"></path></g></g><g stroke-linecap="round"><g transform="translate(1004.1309523809521 863.423824896649) rotate(0 -58.802591743390394 25.210753183742895)"><path d="M-0.6 -0.85 C-20.15 7.84, -98.7 42.76, -118.19 51.27 M1.29 1.32 C-18.31 9.7, -99.06 40.98, -118.9 49.28" stroke="#000000" stroke-width="1" fill="none"></path></g><g transform="translate(1004.1309523809521 863.423824896649) rotate(0 -58.802591743390394 25.210753183742895)"><path d="M-97.97 30.02 C-101.38 35.56, -108.21 37.04, -117.31 48.61 M-96.11 28.96 C-104.22 36.3, -109.29 41.94, -118.64 48.54" stroke="#000000" stroke-width="1" fill="none"></path></g><g transform="translate(1004.1309523809521 863.423824896649) rotate(0 -58.802591743390394 25.210753183742895)"><path d="M-90.33 49.06 C-95.35 50.22, -103.93 47.35, -117.31 48.61 M-88.47 48.01 C-98.85 49.64, -106.21 49.56, -118.64 48.54" stroke="#000000" stroke-width="1" fill="none"></path></g></g><g stroke-linecap="round" transform="translate(565.7976190476192 10) rotate(0 104.16666666666669 55.83333333333334)"><path d="M3.63 40.26 C3.63 40.26, 3.63 40.26, 3.63 40.26 M3.63 40.26 C3.63 40.26, 3.63 40.26, 3.63 40.26 M5.17 45.36 C12.25 37.54, 19.49 27.8, 26.89 20.28 M3.18 47.37 C11.59 37.4, 18.86 27.87, 25.68 20.15 M1.61 51.84 C9.63 45.35, 17.23 37.6, 34.12 17.98 M3.44 53.25 C14.74 41.39, 24.93 28.03, 34.54 18.38 M1.21 59.82 C12.74 46.16, 26.23 30.53, 43.54 13.81 M1.68 59.6 C12.87 49.62, 22.01 38.16, 42.36 13.95 M3.95 64.17 C15.45 49.3, 31.52 34.14, 51.11 10.09 M4.15 65.51 C19.46 46.85, 36.49 27.56, 49.77 12.33 M4.3 67.31 C18.63 52.3, 34.9 34.1, 59.38 10.8 M5 67.78 C17.72 55.81, 28.47 41.59, 58.35 8.89 M8.95 71.56 C23.56 54.66, 36.37 39.19, 62.44 6.19 M7.46 70.86 C27.04 50.08, 45.49 27.87, 63.01 7.06 M9.81 75.76 C25.73 60.98, 37.56 45.73, 68.96 7.68 M10.29 74.99 C32.37 50.7, 53.13 23.91, 68.5 6.77 M13.06 80.43 C35.66 52.8, 58.52 27.81, 75.93 4.22 M12.25 78.97 C33.81 54.68, 54.32 31.43, 76.58 6.43 M13.53 83.38 C29.24 64.75, 44.32 48.86, 79.75 5.68 M15.94 81.25 C32.25 62.14, 51.32 41.25, 80.49 5.82 M16.42 88.05 C38.6 63.07, 61.07 35.84, 87.84 4.45 M16.96 85.97 C34.97 66.05, 50.61 46.2, 88.08 5.3 M18.97 87.44 C41.36 62.44, 66.1 37.09, 91.76 5.1 M18.96 88.29 C35.5 72.72, 49.9 55.68, 92.33 5 M23.57 89.69 C50.95 55.5, 80.37 23.54, 98.87 1.96 M24.26 89.68 C47.35 64.09, 69.26 38.84, 100.41 4 M26.74 90.75 C43.54 73.19, 60.96 54.73, 106.07 0.04 M26.25 92.04 C45.03 71.34, 61.49 52.68, 104.95 2.75 M30.2 93.22 C60.02 59.45, 92.75 23.86, 111.52 1.14 M29.85 94.17 C55.64 66.59, 78.73 37.98, 111.1 2.81 M34.59 94.73 C58.62 70.17, 80.88 44.49, 116.27 3.7 M34.73 95.69 C56.94 70.71, 78.82 45.52, 115.66 2.23 M37.8 99.58 C55.29 76.78, 73.84 56.06, 123.38 2.21 M39.03 98.23 C64.31 69.65, 89.34 40.21, 121.61 2.51 M41.38 98.34 C67.33 71.65, 91.12 45.33, 126.95 4.31 M41.24 100.63 C61.39 78.61, 81.01 57.24, 126.59 3.3 M44.91 103.51 C76.45 67.59, 108.45 27.93, 131.13 1.18 M46.01 102.1 C75.68 65.99, 106.81 30.83, 131.33 2.32 M49.03 104.35 C82.92 66.03, 116.49 26.23, 134.55 1.93 M50.57 102.7 C74.7 75.56, 97.75 47.38, 135.55 3.31 M55.85 104.8 C88.13 62.9, 122.33 25.28, 139.27 5.66 M54.62 104.75 C82.53 69.46, 111.78 36.27, 140.33 3.71 M57.26 104.83 C77.3 82.09, 93.99 62.36, 144.59 6.41 M58.11 105.75 C87.53 69.5, 117.28 36.12, 145.32 5.08 M64.72 104.82 C82.26 85.05, 99.4 62.05, 150.67 7.26 M62.35 106.36 C92.33 71, 121.8 36.63, 149.89 6.83 M67.57 109.19 C86.45 85.19, 107.11 60.16, 153 7.94 M67.88 107.56 C91.56 78.24, 115.41 51.92, 152.9 7.37 M72.07 109.25 C94.86 81.12, 114.5 59.29, 156.67 8.45 M72.92 107.08 C97.84 78, 126.1 46.64, 158.58 9.32 M77.2 109.88 C103.66 78.45, 128.34 47.7, 162.84 8.74 M76.52 109.64 C95.08 86.74, 112.91 65.95, 162.27 10.68 M80.89 108.58 C105.26 81.62, 129.91 54.16, 166.39 13.01 M80.37 109.56 C113.42 72.39, 145.99 34.05, 165.63 12.79 M83.85 110.18 C111.41 76.73, 144.41 43.27, 169.6 13.62 M85.94 110.99 C108.01 85.82, 130.75 59.59, 171.7 11.73 M88.57 113.62 C107.23 90.31, 127.52 70.11, 172.69 15.76 M88.99 112.36 C116.74 78.69, 146.53 45.74, 174.84 14.57 M93.67 111.66 C115.85 88.4, 137.13 63.07, 179.26 16.21 M93.34 113.55 C111.5 94.32, 127.39 75.76, 177.74 17.71 M97.61 112.96 C117.6 89.96, 137.52 68.34, 180.91 18.35 M100.01 113.55 C127.3 80.12, 156.71 47.9, 181.33 19.45 M105.16 114.21 C125.39 90.01, 140.67 70.32, 185.49 20.93 M105.14 112.22 C134.48 78.68, 163.95 45.47, 184.55 22.28 M109.64 111.28 C136.26 83.03, 160.31 54.01, 189.47 23.99 M111.64 112.9 C129.38 92.23, 147.42 70.42, 188.13 24.44 M118.04 112.31 C135.32 89.06, 156.09 65.33, 190.4 26.75 M115.8 111.16 C133.02 90.99, 150 72.52, 190.52 27.29 M121.39 113.34 C146.38 84.31, 168.85 55.98, 193.87 29.95 M121.03 111.92 C139.49 91.36, 156.36 72.28, 194.23 29.27 M129.75 109.21 C151.49 81.74, 173.81 58.15, 199.26 28.73 M128.36 109.97 C149.92 85.03, 171.98 59.21, 197.06 30.34 M132.02 108.17 C155.79 88.29, 172.9 65.25, 198.79 35.56 M133.61 110.08 C147.53 93.38, 161.01 78.33, 198.6 34.41 M137.53 111.76 C159.07 88.2, 177.46 66.73, 201.14 37.77 M138.49 110.49 C161.95 85.34, 184.95 58.21, 201.24 38.51 M147.8 108.9 C164.22 85.44, 184.41 65.17, 203.95 43.99 M145.75 108.55 C156.99 95.83, 170.33 80.55, 202.13 42.77 M151.63 107.84 C167.61 89.15, 178.68 75.3, 206.11 45.51 M153.73 106.23 C171.29 84.98, 190.29 63.93, 204.93 47.32 M158.08 104.2 C173.83 86.73, 186.43 73.58, 206.83 51.16 M160.76 103.73 C176.91 85.14, 194.27 64.66, 206.29 50.73 M164.85 102.91 C179.36 86.67, 192.1 75.1, 209.37 53.94 M167 102.98 C175.86 91.98, 186.58 80.42, 209.03 54.24 M174.66 99.54 C185.59 86.21, 197.04 73, 204.82 65.66 M176.23 98.5 C185.91 86.33, 195.8 74.76, 203.32 65.95 M16.65 86.02 C16.65 86.02, 16.65 86.02, 16.65 86.02 M16.65 86.02 C16.65 86.02, 16.65 86.02, 16.65 86.02 M32.35 95.07 C23.68 88.83, 16.85 82.52, 8.82 75.31 M32.61 94.03 C22.77 86.91, 12.84 77.49, 7.81 74 M45.43 102.37 C30.9 90, 19.34 75.96, 3.38 65.17 M47.11 102.33 C37 93.22, 28.55 85.19, 2.92 63.09 M49.72 101.6 C35.51 87.36, 20.49 74.47, 2.89 57.63 M49.96 99.83 C32.51 83.03, 12.36 66.55, 4.35 58.79 M59.82 102.64 C46.26 86.84, 27.58 73.61, 3.94 54.5 M59.46 102.7 C37.27 83.38, 16.34 64.12, 3.1 52.83 M67.21 104.31 C55.71 89.16, 40.78 79.74, 3.03 49.5 M68.04 103.44 C45.97 82.92, 21.6 64.89, 4.3 48.26 M77.08 104.99 C49.62 81.67, 21.93 56.56, 3.99 41.2 M74.52 104.95 C59.5 90.25, 43.27 76.7, 3.99 41.97 M84.63 108.93 C61.33 87.38, 42.32 69.82, 4.5 37.41 M83.85 106.57 C62.51 87.98, 38.72 67.28, 5.15 38.62 M92.73 109.29 C66.21 87.42, 41.14 66.12, 8.8 36.75 M94.17 110.52 C71.74 92.69, 49.15 72.87, 7.77 35.79 M98.48 108.43 C73.42 86.5, 45.2 63.08, 11.77 34.32 M98.88 109.88 C81.17 93.33, 61.06 75.64, 10.44 33.19 M103.68 108.08 C77.82 86.47, 52.95 62.91, 14.05 29.97 M104.49 108.22 C72.04 81.84, 40.42 56.55, 12.85 30.53 M108.17 109.05 C77.58 80.32, 50.14 56.14, 15.47 26.54 M109.41 108.93 C89.81 92.67, 72.07 76.58, 16.69 27.3 M115.39 106.24 C88.95 89.62, 66.53 68.03, 18.35 22.89 M114.97 107.79 C88.9 83.59, 59.82 59.12, 18.39 23.35 M121.84 106.82 C84.79 75.01, 44.4 44.77, 23.44 22.83 M120.29 108.72 C90.73 79.05, 57.91 52.6, 22.49 21.39 M126.68 109.31 C97.4 79.56, 66.11 54.3, 25.25 20.08 M127.31 108.36 C85.68 73.38, 46.87 39.29, 24.39 19.56 M134.06 107.07 C101.02 80.87, 71.44 54.59, 26.95 13.89 M132.62 107.22 C105.84 83.88, 78 61.19, 26.72 16.52 M138.82 107.4 C115.16 88.58, 92.74 70, 33.25 15.33 M136.51 106.24 C105.71 78.2, 75.54 53.28, 31.62 13.37 M143.06 105.04 C99.47 71.09, 60.44 35.25, 37.74 12.26 M141.03 103.94 C106.11 74.72, 68.28 43.25, 35.55 12.19 M148.29 103.86 C107.99 73.53, 74.85 38.01, 38.8 10.32 M147.59 103.63 C111.19 72.88, 76.81 40.81, 40.61 10.53 M149.78 100.49 C110.18 66.95, 69.11 31.67, 44.94 11.14 M150.7 102.61 C116.57 74.19, 83.57 44.23, 45.38 9.26 M153.97 102.57 C119.92 70.48, 84.95 39.79, 50.24 9.36 M156.85 101.96 C135.24 80.46, 112.67 60.83, 49.68 7.08 M160.34 100.42 C134.95 77.31, 112.77 58.37, 54.14 5.55 M161.81 99.82 C124.66 68.65, 89.36 37.2, 53.93 7.06 M165.98 96.65 C122.56 63.21, 79.73 25.66, 56.89 3.24 M164.65 98.52 C132.09 69.65, 99.66 41.33, 57.93 5.19 M170.29 95.75 C138.68 72.58, 108.62 42.78, 63.12 5.11 M169.86 97.76 C129.44 63.22, 88.77 27.49, 61.95 4.16 M172.83 95.78 C152.04 75.78, 130.91 56.84, 67 4.02 M174.61 95.83 C137.96 64.18, 99.42 30.95, 67.26 3.96 M177.14 93.29 C138.14 57.58, 94.67 21.06, 74.35 1.95 M178.09 94.14 C150.97 70.87, 124.17 46.02, 73.72 2.33 M180.21 89.6 C152.71 65.93, 125.22 42.41, 77.25 2.31 M180.34 91.01 C141.41 57.3, 104.37 24.59, 77.83 0.69 M185.3 89.09 C148.09 60.63, 115.64 28.69, 85.71 2.16 M184.54 87.58 C162.04 70.32, 141.76 50.57, 83.79 1.92 M189.3 84.2 C157.97 60.65, 128.71 32.44, 88.01 -1.37 M187.81 86.31 C154.3 56.48, 119.74 28.28, 89.33 0.27 M192.15 85.7 C168.86 64.89, 143.29 42.26, 95.06 1.71 M190.05 82.86 C165.09 59.69, 138.21 36.54, 93.5 -0.18 M194.44 81.62 C170.17 61.4, 146.31 40.61, 100.82 0.72 M194.98 80.58 C159.98 52.24, 125.12 23.28, 98.49 -1.57 M195.01 80.29 C168.59 49.13, 134.63 24.5, 106.66 -2.89 M197.21 79.04 C165.86 51.77, 137.07 25.16, 105.46 -1.86 M200.4 76.49 C173.18 55.03, 149.41 33.64, 111.21 0.19 M201.08 75.89 C180.95 59, 163.1 43.1, 111.83 -1.54 M201.12 73.92 C170.81 44.11, 138.15 16.19, 117.5 -0.59 M202.42 72.72 C181.84 53.64, 158.77 35.57, 117.84 -1.82 M204.87 66.66 C186.03 51.42, 165.16 37.38, 124.84 -2.74 M203.14 68.23 C183.77 51.98, 164.84 34.9, 123.89 -0.12 M204.64 64.88 C181.81 46.2, 162.53 27.36, 131.21 0.95 M204.82 63.39 C176.96 39.93, 148.71 15.76, 130.32 -0.85 M206.04 59.81 C186.06 42.09, 163.69 24.84, 138.85 1.32 M207.47 60.05 C187.73 43.26, 167.98 26.59, 140.51 3.07 M207.96 57.34 C192.57 41.16, 173.4 29, 151.16 3.21 M207.63 56.05 C193.15 44.94, 179.61 32.6, 149.13 6.12 M211.22 51.59 C198.81 43.21, 188.29 33.06, 159.8 5.69 M210.42 52.42 C192.59 37.87, 175.82 21.77, 158.78 8 M206.36 43.42 C194.84 32.08, 183 24.2, 166.09 8.37 M204.8 43.35 C189.73 29.97, 174.98 16.65, 166.73 9.46 M201.14 34.34 C187.93 25.49, 177.63 13.23, 172.63 9.04 M202.52 35.77 C192.97 27.44, 185.48 21.36, 172.04 7.59" stroke="#ced4da" stroke-width="0.5" fill="none"></path><path d="M130.53 0.83 C144.1 1.54, 158.38 6.55, 169.52 11.47 C180.67 16.4, 190.9 23.25, 197.42 30.4 C203.93 37.55, 208.32 46.56, 208.62 54.37 C208.91 62.19, 204.99 70.12, 199.18 77.27 C193.38 84.42, 184.32 92.14, 173.77 97.27 C163.23 102.41, 149.59 105.62, 135.91 108.07 C122.22 110.53, 106.16 112.87, 91.68 111.99 C77.21 111.11, 61.52 107.09, 49.05 102.8 C36.59 98.51, 24.71 92.67, 16.9 86.23 C9.09 79.79, 4.43 71.78, 2.19 64.15 C-0.05 56.51, -0.31 48.01, 3.48 40.44 C7.27 32.86, 15.35 24.46, 24.92 18.7 C34.5 12.94, 47.85 8.99, 60.94 5.88 C74.04 2.77, 90.72 0.67, 103.48 0.03 C116.24 -0.61, 130.94 1.25, 137.48 2.06 C144.03 2.86, 143.26 3.84, 142.74 4.84 M151.17 6.07 C164.31 8.86, 177.64 16.86, 186.6 22.89 C195.57 28.93, 201.88 34.74, 204.95 42.3 C208.02 49.85, 207.61 60.46, 205.02 68.23 C202.42 76, 197.55 82.71, 189.38 88.93 C181.21 95.15, 168.68 101.58, 156.01 105.54 C143.34 109.5, 128.05 112.14, 113.36 112.69 C98.68 113.24, 81.91 111.89, 67.91 108.85 C53.91 105.8, 39.54 99.99, 29.37 94.43 C19.19 88.87, 11.86 82.54, 6.86 75.5 C1.86 68.47, -1.74 60.14, -0.63 52.21 C0.48 44.28, 6.24 35.08, 13.54 27.94 C20.84 20.8, 31.71 13.93, 43.16 9.37 C54.61 4.81, 68.33 2.1, 82.24 0.58 C96.15 -0.94, 115.12 -0.62, 126.64 0.26 C138.16 1.13, 147.11 4.77, 151.37 5.83 C155.62 6.89, 152.96 5.61, 152.17 6.61" stroke="#000000" stroke-width="1" fill="none"></path></g><g transform="translate(604.4642857142858 25.833333333333343) rotate(0 65.5 37.5)"><text x="65.5" y="18" font-family="Virgil, Segoe UI Emoji" font-size="20px" fill="#000000" text-anchor="middle" style="white-space: pre;" direction="ltr">Men principal</text><text x="65.5" y="43" font-family="Virgil, Segoe UI Emoji" font-size="20px" fill="#000000" text-anchor="middle" style="white-space: pre;" direction="ltr">(Elegir color</text><text x="65.5" y="68" font-family="Virgil, Segoe UI Emoji" font-size="20px" fill="#000000" text-anchor="middle" style="white-space: pre;" direction="ltr">y nombre)</text></g><g stroke-linecap="round"><g transform="translate(658.1386184889844 132.22162753318005) rotate(0 0.676202396833844 20.259501150302256)"><path d="M0.42 -0.55 C0.48 6.03, -0.15 32.76, 0.01 39.5 M-0.82 1.77 C-0.36 8.56, 1.91 35.06, 2.17 41.07" stroke="#000000" stroke-width="1" fill="none"></path></g><g transform="translate(658.1386184889844 132.22162753318005) rotate(0 0.676202396833844 20.259501150302256)"><path d="M-6.74 21.3 C-3.57 28.37, -0.7 34.02, 0.77 41.97 M-5.42 22.95 C-3.74 28.49, -2.43 32.29, 2.98 40.93" stroke="#000000" stroke-width="1" fill="none"></path></g><g transform="translate(658.1386184889844 132.22162753318005) rotate(0 0.676202396833844 20.259501150302256)"><path d="M6.73 20.38 C6.26 27.74, 5.49 33.64, 0.77 41.97 M8.04 22.03 C6.22 27.93, 4.03 31.97, 2.98 40.93" stroke="#000000" stroke-width="1" fill="none"></path></g></g><g stroke-linecap="round"><g transform="translate(527.4642857142857 1175) rotate(0 127.23552722069894 -89.6647734962404)"><path d="M-0.18 0.88 C42.61 -29.24, 213.56 -150.09, 256.2 -180.21 M-1.73 0.3 C41.06 -29.69, 213.06 -148.99, 255.88 -178.79" stroke="#000000" stroke-width="1" fill="none"></path></g><g transform="translate(527.4642857142857 1175) rotate(0 127.23552722069894 -89.6647734962404)"><path d="M240.05 -152.28 C242.52 -159.44, 247.49 -166.76, 255.88 -180.08 M238.91 -154.04 C244.81 -163.49, 251.3 -170.82, 255.81 -179.78" stroke="#000000" stroke-width="1" fill="none"></path></g><g transform="translate(527.4642857142857 1175) rotate(0 127.23552722069894 -89.6647734962404)"><path d="M228.34 -169.14 C233.88 -171.98, 241.84 -175, 255.88 -180.08 M227.2 -170.89 C237.18 -174.34, 247.85 -175.65, 255.81 -179.78" stroke="#000000" stroke-width="1" fill="none"></path></g></g></svg>